<svg xmlns="http://www.w3.org/2000/svg" width="13" height="13" viewBox="0 0 13 13">
  <defs>
    <style>
      .cls-1 {
        fill: #ff431e;
        fill-rule: evenodd;
      }
    </style>
  </defs>
  <path id="группа" class="cls-1" d="M278.5,3423a2.5,2.5,0,1,1-2.5,2.5A2.5,2.5,0,0,1,278.5,3423Zm8,0a2.5,2.5,0,1,1-2.5,2.5A2.5,2.5,0,0,1,286.5,3423Zm-8,8a2.5,2.5,0,1,1-2.5,2.5A2.5,2.5,0,0,1,278.5,3431Zm8,0a2.5,2.5,0,1,1-2.5,2.5A2.5,2.5,0,0,1,286.5,3431Z" transform="translate(-276 -3423)"/>
</svg>
