<svg xmlns="http://www.w3.org/2000/svg" width="26.812" height="22.375" viewBox="0 0 26.812 22.375">
  <defs>
    <style>
      .cls-1 {
        fill: #969696;
        fill-rule: evenodd;
      }
    </style>
  </defs>
  <path class="cls-1" d="M285.5,256.165c-4.707,0-13.4-3.577-13.4-8.675s8.693-8.675,13.4-8.675,13.4,3.577,13.4,8.675S290.207,256.165,285.5,256.165Zm0-15.736c-4.445,0-11.8,3.3-11.8,7.061s7.355,7.061,11.8,7.061,11.8-3.3,11.8-7.061S289.945,240.429,285.5,240.429Zm0,11.365a4.237,4.237,0,1,1,4.2-4.237A4.224,4.224,0,0,1,285.5,251.794Zm0-7.666a3.43,3.43,0,1,0,3.4,3.429A3.418,3.418,0,0,0,285.5,244.128Zm-1.571,2.376a0.4,0.4,0,0,1-.271-0.1,0.407,0.407,0,0,1-.023-0.571,2.6,2.6,0,0,1,.257-0.246,0.4,0.4,0,0,1,.564.055,0.406,0.406,0,0,1-.055.568,1.777,1.777,0,0,0-.177.17A0.4,0.4,0,0,1,283.929,246.5Zm1.571,3.608a2.548,2.548,0,0,1-2.534-2.555,0.4,0.4,0,1,1,.8,0,1.742,1.742,0,0,0,1.734,1.748A0.4,0.4,0,0,1,285.5,250.112Zm-0.05-12.306a0.8,0.8,0,0,1-.8-0.807v-2.42a0.8,0.8,0,1,1,1.6,0V237A0.8,0.8,0,0,1,285.45,237.806Zm-4.609.275a0.8,0.8,0,0,1-.715-0.444l-0.74-1.485a0.809,0.809,0,0,1,.355-1.083,0.8,0.8,0,0,1,1.074.357l0.74,1.485a0.809,0.809,0,0,1-.355,1.083A0.785,0.785,0,0,1,280.841,238.081Zm-4.667,1.871a0.791,0.791,0,0,1-.595-0.268l-1.04-1.167a0.811,0.811,0,0,1,.06-1.14,0.8,0.8,0,0,1,1.13.061l1.04,1.167a0.812,0.812,0,0,1-.061,1.14A0.791,0.791,0,0,1,276.174,239.952Zm13.558-1.871a0.788,0.788,0,0,1-.359-0.087,0.809,0.809,0,0,1-.354-1.083l0.74-1.485a0.794,0.794,0,0,1,1.074-.357,0.809,0.809,0,0,1,.355,1.083l-0.741,1.485A0.8,0.8,0,0,1,289.732,238.081Zm4.668,1.871a0.792,0.792,0,0,1-.535-0.207,0.813,0.813,0,0,1-.06-1.14l1.04-1.167a0.8,0.8,0,0,1,1.13-.061,0.813,0.813,0,0,1,.06,1.14L295,239.684A0.793,0.793,0,0,1,294.4,239.952Z" transform="translate(-272.094 -233.781)"/>
</svg>
