<svg xmlns="http://www.w3.org/2000/svg" width="28.219" height="27.5" viewBox="0 0 28.219 27.5">
  <defs>
    <style>
      .cls-1 {
        fill: #ff431e;
        fill-rule: evenodd;
      }
    </style>
  </defs>
  <path class="cls-1" d="M292.3,107.375h-13.69c-3.048,0-3.873-1.006-3.873-4.142V89.011a0.806,0.806,0,0,1,1.611,0v14.222c0,2.284.1,2.545,2.262,2.545H292.3c2.167,0,2.569-.261,2.569-2.545V89.011a0.805,0.805,0,0,1,1.61,0v14.222C296.478,106.369,295.347,107.375,292.3,107.375Zm-3.471-.4a0.4,0.4,0,0,1-.4-0.4V99c0-.794-0.154-0.809-1.04-0.809h-3.865c-0.885,0-.732.015-0.732,0.809v7.575a0.4,0.4,0,0,1-.805,0V99c0-1.375.368-1.607,1.537-1.607h3.865c1.17,0,1.845.232,1.845,1.607v7.575A0.4,0.4,0,0,1,288.828,106.976ZM272.168,91.39a0.806,0.806,0,0,1-.644-0.319,0.794,0.794,0,0,1,.159-1.118l13.287-9.914a0.809,0.809,0,0,1,1.127.158,0.793,0.793,0,0,1-.159,1.118l-13.287,9.915A0.8,0.8,0,0,1,272.168,91.39Zm26.572,0a0.807,0.807,0,0,1-.484-0.161L284.97,81.315a0.794,0.794,0,0,1-.16-1.118,0.811,0.811,0,0,1,1.128-.158l13.287,9.914a0.8,0.8,0,0,1,.159,1.118A0.806,0.806,0,0,1,298.74,91.39ZM278.36,95a0.4,0.4,0,0,1-.4-0.4V90.059a0.347,0.347,0,0,1,.082-0.317l5.246-4.017a0.382,0.382,0,0,1,.545.074,0.392,0.392,0,0,1-.008.559l-5.059,3.9V94.6A0.4,0.4,0,0,1,278.36,95Zm0,2a0.4,0.4,0,0,1-.4-0.4V96.2a0.4,0.4,0,0,1,.806,0v0.4A0.4,0.4,0,0,1,278.36,97Z" transform="translate(-271.344 -79.875)"/>
</svg>
