<svg xmlns="http://www.w3.org/2000/svg" width="26" height="26" viewBox="0 0 26 26">
  <defs>
    <style>
      .cls-1 {
        fill: #969696;
        fill-rule: evenodd;
      }
    </style>
  </defs>
  <path id="icon" class="cls-1" d="M285.633,305.081a9.8,9.8,0,1,1,9.8-9.8A9.811,9.811,0,0,1,285.633,305.081Zm0-18a8.2,8.2,0,1,0,8.2,8.2A8.209,8.209,0,0,0,285.633,287.082Zm-4.706,3.956a0.4,0.4,0,0,1-.273-0.693,6.752,6.752,0,0,1,2.813-1.562,0.4,0.4,0,1,1,.21.771,5.967,5.967,0,0,0-2.479,1.378A0.392,0.392,0,0,1,280.927,291.038Zm-1.662,2.521a0.39,0.39,0,0,1-.134-0.023,0.4,0.4,0,0,1-.243-0.511,6.756,6.756,0,0,1,.414-0.933,0.4,0.4,0,0,1,.7.379,5.91,5.91,0,0,0-.365.822A0.4,0.4,0,0,1,279.265,293.559Zm6.587-3.859a0.8,0.8,0,0,1-.8-0.8v-5.6a0.8,0.8,0,1,1,1.6,0v5.6A0.8,0.8,0,0,1,285.852,289.7Zm0,18.8a0.8,0.8,0,0,1-.8-0.8v-5.6a0.8,0.8,0,0,1,1.6,0v5.6A0.8,0.8,0,0,1,285.852,308.5Zm11.848-12h-5.6a0.8,0.8,0,0,1,0-1.6h5.6A0.8,0.8,0,0,1,297.7,296.5Zm-18.8,0h-5.6a0.8,0.8,0,0,1,0-1.6h5.6A0.8,0.8,0,0,1,278.9,296.5Z" transform="translate(-272.5 -282.5)"/>
</svg>
