<svg xmlns="http://www.w3.org/2000/svg" width="27.219" height="26.25" viewBox="0 0 27.219 26.25">
  <defs>
    <style>
      .cls-1 {
        fill: #969696;
        fill-rule: evenodd;
      }
    </style>
  </defs>
  <path class="cls-1" d="M292.193,207.939a2.72,2.72,0,0,1-1.273-.318l-5.435-2.906-5.433,2.906a2.753,2.753,0,0,1-2.8-.149,2.577,2.577,0,0,1-1.1-2.544l1.065-6.315-4.593-4.556a2.526,2.526,0,0,1-.623-2.641,2.631,2.631,0,0,1,2.117-1.732l6.247-.923,2.714-5.6a2.684,2.684,0,0,1,4.8,0l2.714,5.6,6.247,0.923a2.63,2.63,0,0,1,2.117,1.73,2.532,2.532,0,0,1-.622,2.643l-4.594,4.556,1.065,6.317a2.576,2.576,0,0,1-1.095,2.541A2.706,2.706,0,0,1,292.193,207.939Zm-6.708-4.928a0.8,0.8,0,0,1,.381.1l5.814,3.109a1.114,1.114,0,0,0,1.127-.061,0.965,0.965,0,0,0,.42-0.961l-1.134-6.723a0.8,0.8,0,0,1,.225-0.7l4.888-4.847a0.953,0.953,0,0,0,.237-1,1.034,1.034,0,0,0-.834-0.671l-6.668-.985a0.8,0.8,0,0,1-.6-0.443l-2.9-5.976a1.074,1.074,0,0,0-1.905,0l-2.9,5.976a0.8,0.8,0,0,1-.606.443l-6.668.985a1.044,1.044,0,0,0-.834.672,0.95,0.95,0,0,0,.238.993l4.887,4.848a0.792,0.792,0,0,1,.224.7l-1.133,6.722a0.967,0.967,0,0,0,.423.964,1.113,1.113,0,0,0,1.128.057l5.81-3.107A0.8,0.8,0,0,1,285.485,203.011Zm-8.8-9.748a0.4,0.4,0,0,1-.064-0.792l0.266-.043a0.4,0.4,0,1,1,.129.787l-0.267.043A0.345,0.345,0,0,1,276.687,193.263Zm1.474-.237a0.4,0.4,0,0,1-.076-0.79l4.345-.833,1.639-3.734a0.4,0.4,0,0,1,.529-0.206,0.4,0.4,0,0,1,.208.525l-1.724,3.926a0.4,0.4,0,0,1-.292.232l-4.553.873A0.5,0.5,0,0,1,278.161,193.026Z" transform="translate(-271.875 -181.688)"/>
</svg>
