<svg xmlns="http://www.w3.org/2000/svg" width="19.188" height="26.812" viewBox="0 0 19.188 26.812">
  <defs>
    <style>
      .cls-1 {
        fill: #969696;
        fill-rule: evenodd;
      }
    </style>
  </defs>
  <path class="cls-1" d="M285.029,149.164c-3.783,0-6.549-6.9-6.549-10.487a6.55,6.55,0,1,1,13.1,0C291.579,142.267,288.813,149.164,285.029,149.164Zm0-15.462a4.969,4.969,0,0,0-4.954,4.975c0,3.107,2.546,8.886,4.954,8.886s4.955-5.779,4.955-8.886A4.97,4.97,0,0,0,285.029,133.7Zm-3.346,5.564a0.4,0.4,0,0,1-.4-0.4,3.988,3.988,0,0,1,3.976-3.992,0.4,0.4,0,0,1,0,.8,3.189,3.189,0,0,0-3.179,3.191A0.4,0.4,0,0,1,281.683,139.266Zm0.139,1.537a0.4,0.4,0,0,1-.283-0.117,0.408,0.408,0,0,1,0-.568,0.411,0.411,0,0,1,.562,0,0.407,0.407,0,0,1,.12.284,0.4,0.4,0,0,1-.12.284A0.384,0.384,0,0,1,281.822,140.8ZM285,158.9c-2.252,0-9.6-.231-9.6-3.2a9.814,9.814,0,0,1,6.8-9.338l0.488-.151,0.341,0.383a2.408,2.408,0,0,0,3.991-.027l0.343-.383,0.489,0.155A9.855,9.855,0,0,1,294.6,155.7C294.6,158.669,287.248,158.9,285,158.9Zm-2.779-10.854a8.219,8.219,0,0,0-5.228,7.652c0,0.44,2.462,1.6,8.007,1.6S293,156.138,293,155.7a8.265,8.265,0,0,0-5.178-7.674A3.854,3.854,0,0,1,282.217,148.046Z" transform="translate(-275.406 -132.094)"/>
</svg>
