<svg xmlns="http://www.w3.org/2000/svg" width="20.53" height="41.37" viewBox="0 0 20.53 41.37">
  <defs>
    <style>
      .cls-1 {
        fill: #0694f8;
        fill-rule: evenodd;
      }
    </style>
  </defs>
  <path class="cls-1" d="M1062.08,1622.89a10.039,10.039,0,0,1-7.09,2.95h-0.46a9.959,9.959,0,0,1-9.99-9.98l0.03-9.96a10.072,10.072,0,0,1,10.04-10.04h0.47a9.944,9.944,0,0,1,9.98,9.98l-0.03,9.96A9.973,9.973,0,0,1,1062.08,1622.89Zm-13.15-22.67a8.051,8.051,0,0,0-2.36,5.67l-0.03,9.96a7.974,7.974,0,0,0,7.99,7.99H1055a8.058,8.058,0,0,0,8.03-8.04l0.03-9.95a7.962,7.962,0,0,0-7.99-7.99h-0.46A7.99,7.99,0,0,0,1048.93,1600.22Zm4.13,21.77a0.5,0.5,0,0,1-.44.14c-3.27-.59-4.95-3.02-4.88-7.04l0.01-2.21a0.51,0.51,0,0,1,.5-0.51,0.5,0.5,0,0,1,.5.5l-0.01,2.23c-0.06,3.52,1.3,5.55,4.06,6.04A0.5,0.5,0,0,1,1053.06,1621.99Zm1.88,0.18a0.533,0.533,0,0,1-.36.15h-0.33a0.5,0.5,0,0,1,0-1h0.33A0.5,0.5,0,0,1,1054.94,1622.17Zm9.47-14.37a0.374,0.374,0,0,1-.2.12,28.946,28.946,0,0,1-18.84.04,0.489,0.489,0,0,1-.26-0.65,0.5,0.5,0,0,1,.65-0.27,28.5,28.5,0,0,0,18.14-.07A0.5,0.5,0,0,1,1064.41,1607.8Zm-9.49-1.59a0.5,0.5,0,0,1-.85-0.36v-2.5a0.524,0.524,0,0,1,.51-0.5,0.5,0.5,0,0,1,.49.5v2.5A0.533,0.533,0,0,1,1054.92,1606.21Zm1.3-8.64a1,1,0,0,1-1.36.06c-0.1-.09-2.43-2.15-0.84-6.8a6.69,6.69,0,0,0-.49-4.88,1.014,1.014,0,0,1,.39-1.37,0.994,0.994,0,0,1,1.36.39,8.7,8.7,0,0,1,.63,6.5c-1.14,3.33.24,4.62,0.25,4.63a1,1,0,0,1,.11,1.41C1056.25,1597.53,1056.24,1597.55,1056.22,1597.57Z" transform="translate(-1044.53 -1584.47)"/>
</svg>
