<svg xmlns="http://www.w3.org/2000/svg" width="20.53" height="41.375" viewBox="0 0 20.53 41.375">
  <defs>
    <style>
      .cls-1 {
        fill: #ff431e;
        fill-rule: evenodd;
      }
    </style>
  </defs>
  <path class="cls-1" d="M1075.08,802.887a10.008,10.008,0,0,1-7.09,2.952h-0.46a9.963,9.963,0,0,1-9.99-9.983l0.03-9.96a10.076,10.076,0,0,1,10.04-10.039h0.47a9.949,9.949,0,0,1,9.98,9.983l-0.03,9.959A9.956,9.956,0,0,1,1075.08,802.887Zm-13.15-22.667a8.05,8.05,0,0,0-2.36,5.672l-0.03,9.96a7.974,7.974,0,0,0,7.99,7.99l0.47,0a8.061,8.061,0,0,0,8.03-8.035l0.03-9.959a7.969,7.969,0,0,0-7.99-7.991l-0.46,0A8.026,8.026,0,0,0,1061.93,780.22Zm4.13,21.766a0.489,0.489,0,0,1-.44.14c-3.27-.582-4.95-3.014-4.88-7.032l0.01-2.219a0.506,0.506,0,0,1,.5-0.5,0.5,0.5,0,0,1,.5.5l-0.01,2.227c-0.06,3.52,1.3,5.551,4.06,6.043a0.5,0.5,0,0,1,.4.58A0.5,0.5,0,0,1,1066.06,801.986Zm1.88,0.184a0.53,0.53,0,0,1-.36.147h-0.33a0.5,0.5,0,1,1,0-1h0.33A0.5,0.5,0,0,1,1067.94,802.17Zm9.47-14.368a0.539,0.539,0,0,1-.2.122,28.946,28.946,0,0,1-18.84.04,0.5,0.5,0,0,1,.39-0.925,28.455,28.455,0,0,0,18.14-.065A0.5,0.5,0,0,1,1077.41,787.8Zm-9.49-1.6a0.5,0.5,0,0,1-.35.147,0.5,0.5,0,0,1-.5-0.5v-2.5a0.514,0.514,0,0,1,.51-0.5,0.493,0.493,0,0,1,.49.5v2.5A0.5,0.5,0,0,1,1067.92,786.205Zm1.3-8.634a1.006,1.006,0,0,1-1.36.056c-0.1-.085-2.43-2.146-0.84-6.795a6.716,6.716,0,0,0-.49-4.886,1,1,0,0,1,1.75-.981,8.716,8.716,0,0,1,.63,6.506c-1.14,3.324.24,4.62,0.25,4.633a1,1,0,0,1,.11,1.409C1069.25,777.533,1069.24,777.552,1069.22,777.571Z" transform="translate(-1057.53 -764.469)"/>
</svg>
